<?xml version="1.0" encoding="UTF-8" standalone="no"?>
<!-- Created with Inkscape (http://www.inkscape.org/) -->

<svg
   width="120.63782mm"
   height="92.155014mm"
   viewBox="0 0 120.63782 92.155014"
   version="1.1"
   id="svg5"
   inkscape:version="1.1.2 (0a00cf5339, 2022-02-04)"
   sodipodi:docname="collab.svg"
   inkscape:export-filename="/home/madams/Projects/collab_chess/docs/collab.png"
   inkscape:export-xdpi="13.48"
   inkscape:export-ydpi="13.48"
   xmlns:inkscape="http://www.inkscape.org/namespaces/inkscape"
   xmlns:sodipodi="http://sodipodi.sourceforge.net/DTD/sodipodi-0.dtd"
   xmlns="http://www.w3.org/2000/svg"
   xmlns:svg="http://www.w3.org/2000/svg">
  <sodipodi:namedview
     id="namedview7"
     pagecolor="#ff9f9f"
     bordercolor="#666666"
     borderopacity="1.0"
     inkscape:pageshadow="2"
     inkscape:pageopacity="1"
     inkscape:pagecheckerboard="0"
     inkscape:document-units="mm"
     showgrid="false"
     inkscape:zoom="0.72871773"
     inkscape:cx="380.11975"
     inkscape:cy="276.5131"
     inkscape:window-width="1920"
     inkscape:window-height="1003"
     inkscape:window-x="0"
     inkscape:window-y="40"
     inkscape:window-maximized="1"
     inkscape:current-layer="layer1" />
  <defs
     id="defs2" />
  <g
     inkscape:label="Layer 1"
     inkscape:groupmode="layer"
     id="layer1"
     transform="translate(-4.5114118,-82.906389)">
    <path
       id="path53"
       style="fill:#000000;stroke:#ffffff;stroke-width:3.465;stroke-miterlimit:4;stroke-dasharray:none"
       d="m 35.673576,84.702222 a 19.353662,19.353662 0 0 0 -20.846294,17.735718 19.353662,19.353662 0 0 0 10.179451,18.61447 l -0.941535,11.68026 -16.3741201,20.57073 -1.313564,16.2955 44.6153431,3.5964 1.313564,-16.2955 -12.867224,-22.92784 0.941534,-11.68026 A 19.353662,19.353662 0 0 0 53.409849,105.54804 19.353662,19.353662 0 0 0 35.673576,84.702222 Z"
       inkscape:export-filename="/home/madams/Projects/collab_chess/docs/favicon.png"
       inkscape:export-xdpi="13.48"
       inkscape:export-ydpi="13.48" />
    <path
       id="path1412"
       style="fill:#ffffff;stroke:#000000;stroke-width:3.465;stroke-miterlimit:4;stroke-dasharray:none"
       d="m 94.051601,84.707957 a 19.353662,19.353662 0 0 0 -17.751822,20.832573 19.353662,19.353662 0 0 0 13.017136,16.75333 l 0.932819,11.68095 -12.884841,22.91829 1.301406,16.29648 44.618011,-3.56311 -1.30141,-16.29648 -16.35824,-20.58299 -0.93282,-11.68095 A 19.353662,19.353662 0 0 0 114.88465,102.45921 19.353662,19.353662 0 0 0 94.051601,84.707957 Z"
       inkscape:export-filename="/home/madams/Projects/collab_chess/docs/favicon.png"
       inkscape:export-xdpi="13.48"
       inkscape:export-ydpi="13.48" />
    <path
       id="rect1544"
       style="fill:#000000;stroke:none;stroke-width:3.46501;stroke-miterlimit:4;stroke-dasharray:none"
       d="m 59.529488,110.38348 v 13.28704 H 46.242444 v 10.62674 H 59.529488 V 147.5843 H 70.156229 V 134.29726 H 83.443273 V 123.67052 H 70.156229 v -13.28704 z"
       inkscape:export-filename="/home/madams/Projects/collab_chess/docs/favicon.png"
       inkscape:export-xdpi="13.48"
       inkscape:export-ydpi="13.48" />
  </g>
</svg>
